<svg width="61" height="35" viewBox="0 0 61 35" fill="none" xmlns="http://www.w3.org/2000/svg">
<path fill-rule="evenodd" clip-rule="evenodd" d="M41.9674 30.9037L41.9886 30.8754C43.0439 29.6458 43.9223 28.2345 44.6268 26.7877C45.7865 27.5832 47.1927 28.09 48.6706 28.09C51.9404 28.09 54.8594 26.3902 55.352 22.9173H49.6203V18.1054H60.1698V32.5752H55.8085V29.9712C53.9096 31.8165 51.5889 32.9374 48.6706 32.9374C46.2087 32.9374 43.9223 32.2139 41.9886 30.8754C41.8836 30.8395 41.7779 30.7667 41.6723 30.6946C38.4371 28.2708 36.2918 24.2196 36.2918 19.6251C36.2918 18.2862 36.4329 17.057 36.6788 15.8627L31.474 32.7204H26.4107L20.397 13.3305C20.4328 13.7289 20.5026 14.1264 20.5026 14.5245H15.5094C15.4736 14.3434 15.4393 14.1264 15.3682 13.9097C15.1221 13.0052 14.5245 12.2817 14.1029 11.9923C13.9617 11.8833 13.7156 11.7394 13.3996 11.5942C13.0123 11.4131 12.4851 11.2323 11.8872 11.0881C11.1839 12.7526 10.6564 14.5604 10.4451 16.4422C10.6209 16.4778 10.7969 16.5143 11.0082 16.5143C11.6413 16.623 12.4851 16.6954 13.3996 16.8041C14.067 16.8762 14.7351 16.9849 15.3682 17.1294C16.7402 17.4179 18.0766 17.8529 18.9901 18.5766C20.784 20.0956 21.6633 22.1942 21.3819 25.3764C21.1703 27.6563 19.7638 29.827 18.3227 30.9837C17.7952 31.3459 16.8449 31.7434 15.8954 32.0694C16.4585 32.9015 18.4629 34.2759 19.7635 35H37.101C38.6483 34.131 40.6169 32.5027 41.6717 31.2369V31.2735C41.7773 31.1648 41.8829 31.0562 41.9879 30.9106C41.981 30.9087 41.9741 30.9064 41.9674 30.9037ZM12.6964 27.9813C13.5754 29.5003 14.6304 30.8754 15.8615 32.069C14.3135 32.6117 12.4851 33.046 10.4454 33.046C7.28064 33.046 4.71409 31.9245 3.30758 30.7667C1.83001 29.5372 0.283936 26.9684 0.283936 23.9301H5.52202C5.52202 26.9316 8.54663 28.1986 10.9723 28.1986C11.5357 28.1986 12.1333 28.09 12.6964 27.9813ZM10.5162 21.6143C10.3395 20.6021 10.3046 19.6251 10.3046 18.6129C10.3046 17.8881 10.3395 17.1657 10.4106 16.4778C8.05368 16.1884 5.97912 15.3925 5.97912 13.8735C5.97912 11.9926 8.08889 10.9794 9.84719 10.9073C10.4807 10.8707 11.1836 10.9794 11.8516 11.1236C12.5236 9.53179 13.4115 8.04598 14.4889 6.71058C13.3292 6.38524 11.9573 6.24036 10.5863 6.24036C7.59722 6.24036 4.81877 7.36223 2.99005 8.98988C1.30217 10.5089 0.740075 12.4256 0.740075 14.8142C0.740075 16.2249 1.30217 17.2743 2.74517 18.7936C3.97499 20.1319 8.05368 21.1803 10.5162 21.6143ZM28.3799 0.000104672C33.5671 -0.0180059 38.3481 2.3153 41.672 6.02336C42.0996 6.50049 42.4972 6.9414 42.8736 7.43303C44.476 6.66118 46.3835 6.23937 48.5291 6.20447C54.7534 6.24003 59.1842 9.06199 60.134 15.0671H54.8242C53.9097 12.6436 52.2215 10.8707 48.5291 10.8707C47.2987 10.8707 46.1377 11.2689 45.153 11.8836C44.5615 10.3087 43.7632 8.8035 42.8259 7.51041C42.4311 7.71963 42.0461 7.94774 41.672 8.194C39.7034 9.49599 38.261 11.3778 37.4176 13.6203L39.632 6.20447H34.4986L28.9423 24.617L28.3092 22.6637L23.3515 6.20447H18.2171L19.5884 10.5813C19.131 9.67676 18.4985 8.91744 17.76 8.30299C17.0568 7.72411 16.2475 7.28979 15.3686 6.96479C15.1224 6.89168 14.841 6.78302 14.5603 6.71091C14.8068 6.38557 15.0878 6.05958 15.3686 5.73425C18.6387 2.22409 23.193 0.0185446 28.3799 0.000104672ZM13.3996 22.1576C12.8008 21.9761 12.1892 21.843 11.5703 21.7595C11.3244 21.6867 10.9381 21.6508 10.5508 21.5781C10.9026 23.8574 11.6759 26.028 12.731 27.981C12.9777 27.9458 13.1884 27.9089 13.3996 27.8723C13.8212 27.8002 14.1375 27.7278 14.349 27.6557C14.7351 27.547 15.0878 27.2941 15.3686 26.896C15.9662 26.2091 16.2831 25.2315 16.1429 24.508C16.0017 24.0385 15.7559 23.6404 15.3686 23.2785C14.8762 22.7727 14.173 22.4105 13.3996 22.1576ZM41.6723 16.6586C41.3909 17.5987 41.2504 18.6129 41.2504 19.6251C41.2504 20.6742 41.3909 21.6508 41.6723 22.5551C42.2357 24.2914 43.2904 25.7745 44.6969 26.7514C45.8791 24.2107 46.4919 21.4294 46.4901 18.6125C46.4901 16.2608 46.0682 13.9815 45.2241 11.8471C43.5708 12.8958 42.34 14.6331 41.6723 16.6586Z" fill="#757FB5"/>
</svg>
